<svg width="330" height="297" viewBox="0 0 330 297" fill="none" xmlns="http://www.w3.org/2000/svg">
<path d="M71.146 199.081C65.7361 199.51 36.8489 203.916 18.1285 185.7C-0.592037 167.485 -6.5532 119.959 8.57427 119.959C20.8232 119.959 51.466 138.276 68.5941 149.903C108.607 177.072 86.2326 197.878 71.146 199.081Z" fill="url(#paint0_linear)"/>
<path d="M258.861 203.161C264.271 203.589 293.158 207.995 311.879 189.78C330.599 171.565 336.56 124.038 321.433 124.038C309.184 124.038 278.541 142.355 261.413 153.982C221.4 181.152 243.775 201.957 258.861 203.161Z" fill="url(#paint1_linear)"/>
<path d="M254.186 146.475C243.795 104.905 235.16 80.1423 212.315 68.0057C212.56 67.8833 212.724 67.8221 212.724 67.8221C169.076 47.0776 163.483 15.8896 163.258 2.42714C163.217 0.101808 160.298 -0.877281 158.828 0.917714C154.174 6.60866 147.11 17.3582 142.394 34.4515C139.965 43.2633 140.557 51.4019 142.476 58.378C134.8 50.2801 131.942 41.7946 130.88 36.7156C130.533 35.0838 128.369 34.7982 127.573 36.2669C125.082 40.8768 121.591 49.3418 120.591 61.9475C120.224 66.5166 120.897 70.637 122.102 74.3085C86.3551 104.925 70.4519 174.4 70.4519 223.987C70.4519 289.32 138.985 282.834 203.149 279.06C272.56 274.981 270.518 211.748 254.186 146.475Z" fill="url(#paint2_linear)"/>
<path d="M166.667 195.736C147.416 174.726 117.937 161.264 84.8648 161.264C82.1905 161.264 79.5569 161.386 76.9234 161.549C72.0443 183.069 69.6965 204.976 69.6965 223.966C69.6965 289.3 138.229 282.814 202.394 279.04C266.415 275.287 269.64 221.172 256.942 161.57C254.145 161.366 251.328 161.243 248.491 161.243C215.398 161.264 185.919 174.726 166.667 195.736Z" fill="url(#paint3_linear)"/>
<path d="M97.5011 106.312C89.8865 120.509 83.9663 136.766 79.6384 153.533C83.2722 155.532 87.4572 156.674 91.9075 156.674C105.994 156.674 117.426 145.251 117.426 131.177C117.405 119.02 108.892 108.862 97.5011 106.312Z" fill="#FF862D"/>
<path d="M254.185 146.475C250.205 130.545 246.469 117.082 242.1 105.864C229.361 107.291 219.481 118.082 219.481 131.177C219.481 145.251 230.913 156.674 244.999 156.674C248.959 156.674 252.695 155.756 256.023 154.145C255.451 151.595 254.839 149.025 254.185 146.475Z" fill="#FF862D"/>
<path d="M144.803 282.794C142.986 282.794 141.373 281.856 140.659 280.366L135.228 269.005C134.738 267.985 135.167 266.761 136.188 266.292C137.209 265.823 138.433 266.23 138.903 267.25L144.333 278.612C144.354 278.633 144.517 278.714 144.762 278.714C145.048 278.714 145.232 278.633 145.272 278.592L149.417 266.19C149.784 265.129 150.927 264.558 152.009 264.905C153.071 265.272 153.663 266.414 153.295 267.495L149.11 280.02C148.498 281.692 146.946 282.733 145.048 282.814C144.966 282.794 144.884 282.794 144.803 282.794Z" fill="#707070"/>
<path d="M151.356 296.991C150.498 296.991 149.702 296.461 149.417 295.604L145.232 283.079C145.252 283.141 145.068 283.059 144.803 283.059H144.782C144.537 283.059 144.374 283.161 144.333 283.181L138.903 294.543C138.413 295.563 137.209 295.991 136.188 295.502C135.167 295.012 134.738 293.809 135.228 292.789L140.659 281.427C141.414 279.877 143.129 278.938 145.027 279C146.926 279.081 148.477 280.142 149.069 281.733L153.275 294.319C153.642 295.379 153.05 296.542 151.989 296.909C151.805 296.95 151.58 296.991 151.356 296.991Z" fill="#707070"/>
<path d="M191.757 282.794C189.94 282.794 188.328 281.856 187.613 280.366L182.183 269.005C181.693 267.985 182.122 266.761 183.142 266.292C184.163 265.802 185.388 266.23 185.857 267.25L191.288 278.612C191.308 278.633 191.471 278.714 191.716 278.714C192.002 278.714 192.186 278.633 192.227 278.592L196.371 266.19C196.738 265.129 197.881 264.558 198.963 264.905C200.025 265.272 200.617 266.414 200.25 267.495L196.065 280.02C195.452 281.692 193.901 282.733 192.002 282.814C191.92 282.794 191.839 282.794 191.757 282.794Z" fill="#707070"/>
<path d="M198.31 296.991C197.453 296.991 196.657 296.461 196.371 295.604L192.186 283.079C192.186 283.141 192.023 283.059 191.757 283.059H191.737C191.492 283.059 191.328 283.161 191.288 283.181L185.857 294.543C185.367 295.563 184.143 295.991 183.142 295.502C182.122 295.012 181.693 293.809 182.183 292.789L187.613 281.427C188.368 279.877 190.104 278.938 191.982 279C193.88 279.081 195.432 280.142 196.024 281.733L200.229 294.319C200.597 295.379 200.005 296.542 198.943 296.909C198.759 296.95 198.535 296.991 198.31 296.991Z" fill="#707070"/>
<path d="M187.082 153.166C187.082 168.607 168.708 181.131 168.708 181.131C168.708 181.131 150.335 168.607 150.335 153.166C150.335 137.725 158.562 132.177 168.708 132.177C178.875 132.197 187.082 137.725 187.082 153.166Z" fill="url(#paint4_linear)"/>
<path d="M142.659 132.198C147.654 132.198 151.703 127.631 151.703 121.998C151.703 116.366 147.654 111.799 142.659 111.799C137.665 111.799 133.616 116.366 133.616 121.998C133.616 127.631 137.665 132.198 142.659 132.198Z" fill="#606060"/>
<path d="M196.024 132.198C201.019 132.198 205.067 127.631 205.067 121.998C205.067 116.366 201.019 111.799 196.024 111.799C191.029 111.799 186.98 116.366 186.98 121.998C186.98 127.631 191.029 132.198 196.024 132.198Z" fill="#606060"/>
<defs>
<linearGradient id="paint0_linear" x1="67.4085" y1="203.681" x2="16.0529" y2="114.656" gradientUnits="userSpaceOnUse">
<stop offset="0.00563364" stop-color="#FFBB52"/>
<stop offset="0.1262" stop-color="#FFBF62"/>
<stop offset="0.3951" stop-color="#FFC87F"/>
<stop offset="0.6274" stop-color="#FFCD91"/>
<stop offset="0.7952" stop-color="#FFCF97"/>
<stop offset="0.8958" stop-color="#EFDC97"/>
<stop offset="1" stop-color="#E3E597"/>
</linearGradient>
<linearGradient id="paint1_linear" x1="262.604" y1="207.761" x2="313.959" y2="118.735" gradientUnits="userSpaceOnUse">
<stop offset="0.00563364" stop-color="#FFBB52"/>
<stop offset="0.1262" stop-color="#FFBF62"/>
<stop offset="0.3951" stop-color="#FFC87F"/>
<stop offset="0.6274" stop-color="#FFCD91"/>
<stop offset="0.7952" stop-color="#FFCF97"/>
<stop offset="0.8958" stop-color="#EFDC97"/>
<stop offset="1" stop-color="#E3E597"/>
</linearGradient>
<linearGradient id="paint2_linear" x1="70.4582" y1="140.621" x2="263.649" y2="140.621" gradientUnits="userSpaceOnUse">
<stop stop-color="#FFD497"/>
<stop offset="0.1665" stop-color="#FFCD86"/>
<stop offset="0.4011" stop-color="#FFC676"/>
<stop offset="0.6622" stop-color="#FFC26C"/>
<stop offset="1" stop-color="#FFC169"/>
</linearGradient>
<linearGradient id="paint3_linear" x1="69.7061" y1="221.257" x2="262.885" y2="221.257" gradientUnits="userSpaceOnUse">
<stop stop-color="#FFD497"/>
<stop offset="0.2835" stop-color="#FFD190"/>
<stop offset="0.7092" stop-color="#FFC87B"/>
<stop offset="1" stop-color="#FFC169"/>
</linearGradient>
<linearGradient id="paint4_linear" x1="168.718" y1="132.195" x2="168.718" y2="181.149" gradientUnits="userSpaceOnUse">
<stop stop-color="#FFA669"/>
<stop offset="0.4583" stop-color="#FDA669"/>
<stop offset="0.6234" stop-color="#F6A569"/>
<stop offset="0.7411" stop-color="#EBA469"/>
<stop offset="0.8363" stop-color="#DAA269"/>
<stop offset="0.9178" stop-color="#C49F69"/>
<stop offset="0.9886" stop-color="#A99D69"/>
<stop offset="1" stop-color="#A49C69"/>
</linearGradient>
</defs>
</svg>
