<svg width="330" height="297" viewBox="0 0 330 297" fill="none" xmlns="http://www.w3.org/2000/svg">
<g clip-path="url(#clip0)">
<path d="M258.861 203.162C264.271 203.59 293.158 207.996 311.879 189.781C330.599 171.566 336.561 124.039 321.433 124.039C309.184 124.039 278.541 142.356 261.413 153.983C221.4 181.153 243.775 201.958 258.861 203.162Z" fill="url(#paint0_linear)"/>
<path d="M71.146 199.082C65.736 199.51 36.8489 203.916 18.1284 185.701C-0.592067 167.486 -6.55323 119.959 8.57424 119.959C20.8232 119.959 51.466 138.276 68.5941 149.903C108.607 177.073 86.2326 197.879 71.146 199.082Z" fill="url(#paint1_linear)"/>
<path d="M254.982 146.476C244.591 104.906 235.956 80.1428 213.111 68.0061C213.356 67.8838 213.52 67.8226 213.52 67.8226C169.873 47.0781 164.279 15.8899 164.054 2.42739C164.014 0.102052 161.094 -0.87704 159.624 0.917962C154.97 6.60893 147.906 17.3585 143.19 34.4518C140.761 43.2637 141.353 51.4024 143.272 58.3784C135.596 50.2805 132.738 41.795 131.676 36.716C131.329 35.0842 129.165 34.7986 128.369 36.2672C125.878 40.8771 122.387 49.3422 121.387 61.948C121.02 66.5171 121.693 70.6374 122.898 74.309C87.1513 104.926 71.2481 174.401 71.2481 223.988C71.2481 289.322 139.781 282.835 203.945 279.062C273.356 274.982 271.314 211.749 254.982 146.476Z" fill="url(#paint2_linear)"/>
<path d="M168.076 196.287C148.968 175.706 119.672 162.529 86.8043 162.529C84.1503 162.529 81.5168 162.652 78.9241 162.815C74.0653 183.886 71.7585 205.344 71.7585 223.926C71.7585 287.914 139.842 281.55 203.578 277.858C267.17 274.166 270.375 221.193 257.759 162.835C254.982 162.652 252.186 162.509 249.348 162.509C216.48 162.529 187.184 175.706 168.076 196.287Z" fill="url(#paint3_linear)"/>
<path d="M98.2973 106.313C90.6827 120.51 84.7625 136.767 80.4346 153.534C84.0684 155.533 88.2533 156.675 92.7037 156.675C106.79 156.675 118.222 145.252 118.222 131.178C118.201 119.021 109.689 108.863 98.2973 106.313Z" fill="#A3AEC4"/>
<path d="M254.982 146.476C251.001 130.546 247.265 117.083 242.896 105.864C230.158 107.292 220.277 118.082 220.277 131.178C220.277 145.252 231.709 156.675 245.795 156.675C249.756 156.675 253.491 155.757 256.819 154.146C256.247 151.596 255.635 149.026 254.982 146.476Z" fill="#A3AEC4"/>
<path d="M145.599 282.795C143.782 282.795 142.169 281.857 141.455 280.368L136.025 269.006C135.535 267.986 135.963 266.762 136.984 266.293C138.005 265.823 139.23 266.231 139.699 267.251L145.13 278.613C145.15 278.634 145.313 278.715 145.558 278.715C145.844 278.715 146.028 278.634 146.069 278.593L150.213 266.191C150.58 265.13 151.723 264.559 152.805 264.906C153.867 265.273 154.459 266.415 154.091 267.496L149.907 280.021C149.294 281.693 147.743 282.734 145.844 282.815C145.762 282.795 145.681 282.795 145.599 282.795Z" fill="#545454"/>
<path d="M152.173 296.992C151.315 296.992 150.519 296.462 150.233 295.605L146.048 283.08C146.069 283.142 145.885 283.06 145.619 283.06H145.599C145.354 283.06 145.191 283.162 145.15 283.182L139.72 294.544C139.23 295.564 138.025 295.992 137.005 295.503C135.984 295.013 135.555 293.81 136.045 292.79L141.475 281.428C142.231 279.878 143.946 278.939 145.844 279.001C147.743 279.082 149.294 280.143 149.886 281.734L154.091 294.32C154.459 295.381 153.867 296.543 152.805 296.91C152.601 296.951 152.377 296.992 152.173 296.992Z" fill="#545454"/>
<path d="M192.553 282.795C190.737 282.795 189.124 281.857 188.409 280.368L182.979 269.006C182.489 267.986 182.918 266.762 183.939 266.293C184.959 265.803 186.184 266.231 186.654 267.251L192.084 278.613C192.104 278.634 192.268 278.715 192.513 278.715C192.798 278.715 192.982 278.634 193.023 278.593L197.167 266.191C197.535 265.13 198.678 264.559 199.76 264.906C200.821 265.273 201.413 266.415 201.046 267.496L196.861 280.021C196.248 281.693 194.697 282.734 192.798 282.815C192.717 282.795 192.635 282.795 192.553 282.795Z" fill="#545454"/>
<path d="M199.127 296.992C198.269 296.992 197.473 296.462 197.188 295.605L193.003 283.08C193.003 283.142 192.839 283.06 192.574 283.06H192.553C192.308 283.06 192.145 283.162 192.104 283.182L186.674 294.544C186.184 295.564 184.959 295.992 183.959 295.503C182.938 295.013 182.509 293.81 182.999 292.79L188.43 281.428C189.185 279.878 190.92 278.939 192.798 279.001C194.697 279.082 196.248 280.143 196.84 281.734L201.046 294.32C201.413 295.381 200.821 296.543 199.76 296.91C199.556 296.951 199.331 296.992 199.127 296.992Z" fill="#545454"/>
<path d="M187.898 153.167C187.898 168.608 169.525 181.132 169.525 181.132C169.525 181.132 151.152 168.608 151.152 153.167C151.152 137.726 159.379 132.177 169.525 132.177C179.671 132.177 187.898 137.726 187.898 153.167Z" fill="url(#paint4_linear)"/>
<path d="M142.659 132.198C147.654 132.198 151.703 127.632 151.703 121.999C151.703 116.366 147.654 111.8 142.659 111.8C137.665 111.8 133.616 116.366 133.616 121.999C133.616 127.632 137.665 132.198 142.659 132.198Z" fill="#383838"/>
<path d="M196.024 132.198C201.019 132.198 205.068 127.632 205.068 121.999C205.068 116.366 201.019 111.8 196.024 111.8C191.029 111.8 186.98 116.366 186.98 121.999C186.98 127.632 191.029 132.198 196.024 132.198Z" fill="#383838"/>
</g>
<defs>
<linearGradient id="paint0_linear" x1="262.604" y1="207.762" x2="313.96" y2="118.736" gradientUnits="userSpaceOnUse">
<stop offset="0.00180591" stop-color="#7882AA"/>
<stop offset="0.2851" stop-color="#7A85AC"/>
<stop offset="0.4711" stop-color="#838DB2"/>
<stop offset="0.6286" stop-color="#909CBC"/>
<stop offset="0.72" stop-color="#9CA9C4"/>
<stop offset="0.7764" stop-color="#A5AFC3"/>
<stop offset="0.8672" stop-color="#BCC1BF"/>
<stop offset="0.9806" stop-color="#E3DDB8"/>
<stop offset="1" stop-color="#EAE2B7"/>
</linearGradient>
<linearGradient id="paint1_linear" x1="67.4084" y1="203.682" x2="16.0526" y2="114.656" gradientUnits="userSpaceOnUse">
<stop offset="0.00180591" stop-color="#7882AA"/>
<stop offset="0.2851" stop-color="#7A85AC"/>
<stop offset="0.4711" stop-color="#838DB2"/>
<stop offset="0.6286" stop-color="#909CBC"/>
<stop offset="0.72" stop-color="#9CA9C4"/>
<stop offset="0.7764" stop-color="#A5AFC3"/>
<stop offset="0.8672" stop-color="#BCC1BF"/>
<stop offset="0.9806" stop-color="#E3DDB8"/>
<stop offset="1" stop-color="#EAE2B7"/>
</linearGradient>
<linearGradient id="paint2_linear" x1="71.2569" y1="140.621" x2="264.447" y2="140.621" gradientUnits="userSpaceOnUse">
<stop stop-color="#9AA7C3"/>
<stop offset="0.0108" stop-color="#99A6C3"/>
<stop offset="0.2894" stop-color="#8999BD"/>
<stop offset="0.5989" stop-color="#7F91B9"/>
<stop offset="1" stop-color="#7C8EB8"/>
</linearGradient>
<linearGradient id="paint3_linear" x1="71.7476" y1="221.258" x2="263.648" y2="221.258" gradientUnits="userSpaceOnUse">
<stop stop-color="#9CA9C4"/>
<stop offset="1" stop-color="#7A8CB7"/>
</linearGradient>
<linearGradient id="paint4_linear" x1="169.517" y1="132.195" x2="169.517" y2="181.15" gradientUnits="userSpaceOnUse">
<stop stop-color="#CA7269"/>
<stop offset="0.4228" stop-color="#C87269"/>
<stop offset="0.5751" stop-color="#C17269"/>
<stop offset="0.6837" stop-color="#B67269"/>
<stop offset="0.7715" stop-color="#A57169"/>
<stop offset="0.8467" stop-color="#8F7169"/>
<stop offset="0.9132" stop-color="#737169"/>
<stop offset="0.9719" stop-color="#547069"/>
<stop offset="1" stop-color="#427069"/>
</linearGradient>
<clipPath id="clip0">
<rect width="330" height="297" fill="white"/>
</clipPath>
</defs>
</svg>
