<svg width="40" height="40" viewBox="0 0 40 40" fill="none" xmlns="http://www.w3.org/2000/svg">
<path d="M0 0H34C37.3137 0 40 2.68629 40 6V34C40 37.3137 37.3137 40 34 40H0V0Z" fill="#FFD899"/>
<path d="M22.0012 30.0012H12.0012C11.4652 30.0198 10.9456 29.8151 10.5665 29.4359C10.1873 29.0567 9.98254 28.5371 10.0012 28.0012V18.0012C9.98254 17.4652 10.1873 16.9456 10.5665 16.5665C10.9456 16.1873 11.4652 15.9825 12.0012 16.0012H16.0012V12.0012C15.9825 11.4652 16.1873 10.9456 16.5665 10.5665C16.9456 10.1873 17.4652 9.98254 18.0012 10.0012H28.0012C28.5371 9.98254 29.0567 10.1873 29.4359 10.5665C29.8151 10.9456 30.0198 11.4652 30.0012 12.0012V22.0012C30.0195 22.537 29.8147 23.0564 29.4355 23.4356C29.0564 23.8147 28.537 24.0195 28.0012 24.0012H24.0012V28.0012C24.0195 28.537 23.8147 29.0564 23.4356 29.4355C23.0564 29.8147 22.537 30.0195 22.0012 30.0012ZM12.0012 18.0012V28.0012H22.0012V24.0012H18.0012C17.4653 24.0195 16.9459 23.8147 16.5668 23.4356C16.1877 23.0564 15.9828 22.537 16.0012 22.0012V18.0012H12.0012ZM18.0012 12.0012V22.0012H28.0012V12.0012H18.0012Z" fill="white"/>
</svg>
