<svg width="193" height="298" viewBox="0 0 193 298" fill="none" xmlns="http://www.w3.org/2000/svg">
<g clip-path="url(#clip0)">
<path d="M183.557 146.974C173.176 105.262 164.549 80.4153 141.726 68.2374C141.971 68.1146 142.134 68.0532 142.134 68.0532C98.5089 47.2383 92.941 15.9442 92.7167 2.43591C92.6759 0.102673 89.7594 -0.879745 88.2909 0.921354C83.6204 6.65212 76.5841 17.4178 71.8728 34.5896C69.4457 43.4314 70.0372 51.5977 71.9543 58.5975C64.2857 50.472 61.4304 41.9578 60.3699 36.8615C60.0231 35.2241 57.8612 34.9376 57.0658 36.4112C54.5776 41.0367 51.09 49.5306 50.0907 62.1792C49.7236 66.7638 50.3966 70.8981 51.5999 74.5822C15.8879 105.283 0 174.993 0 224.749C0 290.305 68.4668 283.796 132.569 280.01C201.913 275.916 199.873 212.469 183.557 146.974Z" fill="url(#paint0_linear)"/>
<path d="M96.7346 196.954C77.6242 176.303 48.3571 163.081 15.5412 163.081C12.8898 163.081 10.2588 163.204 7.66861 163.368C2.81455 184.51 0.509888 206.042 0.509888 224.687C0.509888 288.892 68.528 282.506 132.202 278.802C195.733 275.097 198.935 221.944 186.331 163.388C183.557 163.204 180.763 163.061 177.928 163.061C145.092 163.081 115.824 176.303 96.7346 196.954Z" fill="url(#paint1_linear)"/>
<path d="M73.5044 126.896C67.0799 126.896 61.0633 123.314 57.4329 117.337C56.8415 116.375 57.1474 115.107 58.106 114.533C59.0646 113.94 60.3291 114.247 60.9001 115.209C63.837 120.039 68.426 122.802 73.5044 122.802C78.5828 122.802 83.1717 120.039 86.0882 115.209C86.6797 114.247 87.9238 113.94 88.8824 114.533C89.841 115.127 90.1469 116.375 89.5554 117.337C85.9455 123.314 79.9289 126.896 73.5044 126.896Z" fill="#545454"/>
<path d="M124.35 126.896C117.925 126.896 111.909 123.314 108.278 117.337C107.687 116.375 107.993 115.107 108.951 114.533C109.91 113.94 111.174 114.247 111.745 115.209C114.682 120.039 119.271 122.802 124.329 122.802C129.387 122.802 133.997 120.039 136.933 115.209C137.525 114.247 138.769 113.94 139.728 114.533C140.686 115.127 140.992 116.375 140.401 117.337C136.791 123.314 130.774 126.896 124.35 126.896Z" fill="#545454"/>
<path d="M27.0033 106.674C19.3959 120.919 13.4813 137.231 9.15747 154.055C12.7878 156.061 16.9688 157.207 21.415 157.207C35.4877 157.207 46.909 145.746 46.909 131.623C46.909 119.425 38.3838 109.232 27.0033 106.674Z" fill="#A3AEC4"/>
<path d="M183.557 146.974C179.58 130.989 175.848 117.481 171.483 106.203C158.777 107.657 148.885 118.463 148.885 131.623C148.885 145.746 160.306 157.207 174.379 157.207C178.336 157.207 182.068 156.286 185.393 154.669C184.801 152.111 184.189 149.532 183.557 146.974Z" fill="#A3AEC4"/>
<path d="M74.2794 283.755C72.4642 283.755 70.853 282.813 70.1392 281.319L64.7141 269.919C64.2246 268.896 64.6529 267.668 65.6726 267.197C66.6924 266.726 67.9161 267.136 68.3852 268.159L73.8103 279.559C73.8307 279.58 73.9939 279.661 74.2386 279.661C74.5242 279.661 74.7077 279.58 74.7485 279.539L78.8888 267.095C79.2559 266.03 80.398 265.457 81.4789 265.805C82.5395 266.174 83.131 267.32 82.7638 268.405L78.5828 280.971C77.971 282.65 76.4209 283.693 74.5242 283.775C74.4222 283.755 74.361 283.755 74.2794 283.755Z" fill="#545454"/>
<path d="M80.8263 298C79.9697 298 79.1743 297.468 78.8887 296.608L74.7077 284.041C74.7281 284.103 74.5446 284.021 74.2794 284.021H74.259C74.0143 284.021 73.8511 284.123 73.8103 284.144L68.3852 295.544C67.8957 296.567 66.6924 296.997 65.6726 296.506C64.6529 296.015 64.2246 294.807 64.7141 293.784L70.1392 282.384C70.8938 280.828 72.607 279.887 74.5038 279.948C76.4005 280.03 77.9506 281.094 78.542 282.691L82.7434 295.319C83.1106 296.383 82.5191 297.55 81.4585 297.918C81.2546 297.959 81.0506 298 80.8263 298Z" fill="#545454"/>
<path d="M121.188 283.755C119.373 283.755 117.762 282.813 117.048 281.319L111.623 269.919C111.134 268.896 111.562 267.668 112.582 267.197C113.601 266.706 114.825 267.136 115.294 268.159L120.719 279.559C120.74 279.58 120.903 279.661 121.148 279.661C121.433 279.661 121.617 279.58 121.658 279.539L125.798 267.095C126.165 266.03 127.307 265.457 128.388 265.805C129.448 266.174 130.04 267.32 129.673 268.405L125.492 280.971C124.88 282.65 123.33 283.693 121.433 283.775C121.331 283.755 121.27 283.755 121.188 283.755Z" fill="#545454"/>
<path d="M127.735 298C126.879 298 126.083 297.468 125.798 296.608L121.617 284.041C121.617 284.103 121.454 284.021 121.188 284.021H121.168C120.923 284.021 120.76 284.123 120.719 284.144L115.294 295.544C114.805 296.567 113.581 296.997 112.582 296.506C111.562 296.015 111.134 294.807 111.623 293.784L117.048 282.384C117.803 280.828 119.536 279.887 121.413 279.948C123.31 280.03 124.86 281.094 125.451 282.691L129.652 295.319C130.02 296.383 129.428 297.55 128.368 297.918C128.164 297.959 127.96 298 127.735 298Z" fill="#545454"/>
<path d="M116.518 153.687C116.518 169.18 98.1622 181.747 98.1622 181.747C98.1622 181.747 79.8065 169.18 79.8065 153.687C79.8065 138.193 88.0258 132.626 98.1622 132.626C108.299 132.626 116.518 138.193 116.518 153.687Z" fill="url(#paint2_linear)"/>
</g>
<defs>
<linearGradient id="paint0_linear" x1="0" y1="141.099" x2="193.004" y2="141.099" gradientUnits="userSpaceOnUse">
<stop stop-color="#9AA7C3"/>
<stop offset="0.0108" stop-color="#99A6C3"/>
<stop offset="0.2894" stop-color="#8999BD"/>
<stop offset="0.5989" stop-color="#7F91B9"/>
<stop offset="1" stop-color="#7C8EB8"/>
</linearGradient>
<linearGradient id="paint1_linear" x1="0.490308" y1="222.01" x2="192.205" y2="222.01" gradientUnits="userSpaceOnUse">
<stop stop-color="#9CA9C4"/>
<stop offset="1" stop-color="#7A8CB7"/>
</linearGradient>
<linearGradient id="paint2_linear" x1="98.1653" y1="132.644" x2="98.1653" y2="181.765" gradientUnits="userSpaceOnUse">
<stop stop-color="#CA7269"/>
<stop offset="0.4228" stop-color="#C87269"/>
<stop offset="0.5751" stop-color="#C17269"/>
<stop offset="0.6837" stop-color="#B67269"/>
<stop offset="0.7715" stop-color="#A57169"/>
<stop offset="0.8467" stop-color="#8F7169"/>
<stop offset="0.9132" stop-color="#737169"/>
<stop offset="0.9719" stop-color="#547069"/>
<stop offset="1" stop-color="#427069"/>
</linearGradient>
<clipPath id="clip0">
<rect width="193" height="298" fill="white"/>
</clipPath>
</defs>
</svg>
