<svg width="193" height="298" viewBox="0 0 193 298" fill="none" xmlns="http://www.w3.org/2000/svg">
<g clip-path="url(#clip0)">
<path d="M183.594 146.974C173.253 105.262 164.66 80.4151 141.926 68.2372C142.17 68.1144 142.332 68.053 142.332 68.053C98.877 47.238 93.3308 15.9439 93.1073 2.43567C93.0667 0.102429 90.1615 -0.879989 88.6988 0.92111C84.0668 6.63141 77.0375 17.4175 72.3446 34.5689C69.927 43.4107 70.5161 51.577 72.4258 58.5767C64.7871 50.4513 61.9429 41.937 60.8864 36.8407C60.5411 35.2034 58.3876 34.9168 57.5953 36.3905C55.1168 41.016 51.6428 49.5098 50.6473 62.1585C50.2816 66.7431 50.952 70.8774 52.1507 74.5615C16.5777 105.283 0.751709 174.993 0.751709 224.749C0.751709 290.304 68.9518 283.796 132.804 280.01C201.878 275.916 199.846 212.468 183.594 146.974Z" fill="url(#paint0_linear)"/>
<path d="M96.5 196.402C77.3422 175.321 48.0062 161.812 15.0946 161.812C12.4333 161.812 9.81253 161.935 7.19179 162.099C2.316 183.712 0 205.694 0 224.748C0 290.304 68.2001 283.796 132.053 280.009C195.763 276.244 198.973 221.945 186.336 162.14C183.553 161.935 180.75 161.812 177.926 161.812C144.994 161.812 115.658 175.321 96.5 196.402Z" fill="url(#paint1_linear)"/>
<path d="M73.9698 126.896C67.5704 126.896 61.5772 123.314 57.961 117.338C57.3718 116.376 57.6766 115.107 58.6314 114.534C59.5863 113.94 60.8458 114.247 61.4147 115.209C64.3402 120.039 68.9112 122.802 73.9698 122.802C79.0285 122.802 83.5995 120.039 86.5047 115.209C87.0938 114.247 88.3331 113.94 89.288 114.534C90.2428 115.127 90.5475 116.376 89.9584 117.338C86.3422 123.314 80.3693 126.896 73.9698 126.896Z" fill="#707070"/>
<path d="M124.617 126.896C118.218 126.896 112.224 123.314 108.608 117.338C108.019 116.376 108.324 115.107 109.279 114.534C110.233 113.94 111.493 114.247 112.062 115.209C114.987 120.039 119.558 122.802 124.617 122.802C129.676 122.802 134.247 120.039 137.172 115.209C137.761 114.247 139.001 113.94 139.955 114.534C140.91 115.127 141.215 116.376 140.626 117.338C137.01 123.314 131.017 126.896 124.617 126.896Z" fill="#707070"/>
<path d="M27.6498 106.674C20.072 120.919 14.1804 137.231 9.87347 154.055C13.4897 156.061 17.6544 157.207 22.0833 157.207C36.1012 157.207 47.478 145.746 47.478 131.624C47.478 119.425 38.986 109.233 27.6498 106.674Z" fill="#FF862D"/>
<path d="M183.594 146.974C179.632 130.989 175.914 117.481 171.567 106.203C158.89 107.636 149.057 118.463 149.057 131.603C149.057 145.725 160.434 157.187 174.452 157.187C178.393 157.187 182.111 156.266 185.422 154.649C184.833 152.111 184.224 149.532 183.594 146.974Z" fill="#FF862D"/>
<path d="M74.7418 283.755C72.9337 283.755 71.3288 282.813 70.6177 281.319L65.2137 269.919C64.7261 268.896 65.1528 267.668 66.1685 267.197C67.1843 266.726 68.4033 267.136 68.8706 268.159L74.2746 279.559C74.2949 279.58 74.4574 279.661 74.7012 279.661C74.9856 279.661 75.1684 279.58 75.2091 279.539L79.3332 267.095C79.6989 266.03 80.8365 265.457 81.9133 265.805C82.9697 266.174 83.5589 267.32 83.1932 268.405L79.0284 280.971C78.419 282.65 76.875 283.693 74.9856 283.775C74.884 283.755 74.8028 283.755 74.7418 283.755Z" fill="#707070"/>
<path d="M81.2632 298C80.4099 298 79.6176 297.468 79.3332 296.608L75.1684 284.041C75.1888 284.103 75.0059 284.021 74.7418 284.021H74.7215C74.4777 284.021 74.3152 284.123 74.2746 284.144L68.8706 295.544C68.383 296.567 67.1843 296.997 66.1685 296.506C65.1528 296.015 64.7261 294.807 65.2137 293.784L70.6177 282.384C71.3694 280.828 73.0759 279.887 74.9653 279.948C76.8547 280.03 78.3987 281.094 78.9878 282.691L83.1729 295.319C83.5385 296.383 82.9494 297.55 81.893 297.918C81.6898 297.959 81.4663 298 81.2632 298Z" fill="#707070"/>
<path d="M121.468 283.755C119.66 283.755 118.055 282.813 117.344 281.319L111.94 269.919C111.452 268.896 111.879 267.668 112.895 267.197C113.911 266.706 115.13 267.136 115.597 268.159L121.001 279.559C121.021 279.58 121.184 279.661 121.427 279.661C121.712 279.661 121.895 279.58 121.935 279.539L126.059 267.095C126.425 266.03 127.563 265.457 128.64 265.805C129.696 266.174 130.285 267.32 129.919 268.405L125.755 280.971C125.145 282.65 123.601 283.693 121.712 283.775C121.61 283.755 121.529 283.755 121.468 283.755Z" fill="#707070"/>
<path d="M127.989 298C127.136 298 126.344 297.468 126.059 296.608L121.895 284.041C121.895 284.103 121.732 284.021 121.468 284.021H121.448C121.204 284.021 121.041 284.123 121.001 284.144L115.597 295.544C115.109 296.567 113.89 296.997 112.895 296.506C111.879 296.015 111.452 294.807 111.94 293.784L117.344 282.384C118.096 280.828 119.823 279.887 121.692 279.948C123.581 280.03 125.125 281.094 125.714 282.691L129.899 295.319C130.265 296.383 129.676 297.55 128.619 297.918C128.416 297.959 128.193 298 127.989 298Z" fill="#707070"/>
<path d="M116.816 153.687C116.816 169.18 98.5316 181.747 98.5316 181.747C98.5316 181.747 80.2474 169.18 80.2474 153.687C80.2474 138.193 88.4346 132.626 98.5316 132.626C108.629 132.626 116.816 138.193 116.816 153.687Z" fill="url(#paint2_linear)"/>
</g>
<defs>
<linearGradient id="paint0_linear" x1="0.748662" y1="141.099" x2="193.001" y2="141.099" gradientUnits="userSpaceOnUse">
<stop stop-color="#FFD497"/>
<stop offset="0.1665" stop-color="#FFCD86"/>
<stop offset="0.4011" stop-color="#FFC676"/>
<stop offset="0.6622" stop-color="#FFC26C"/>
<stop offset="1" stop-color="#FFC169"/>
</linearGradient>
<linearGradient id="paint1_linear" x1="0" y1="222.01" x2="192.241" y2="222.01" gradientUnits="userSpaceOnUse">
<stop stop-color="#FFD497"/>
<stop offset="0.2835" stop-color="#FFD190"/>
<stop offset="0.7092" stop-color="#FFC87B"/>
<stop offset="1" stop-color="#FFC169"/>
</linearGradient>
<linearGradient id="paint2_linear" x1="98.5316" y1="132.644" x2="98.5316" y2="181.765" gradientUnits="userSpaceOnUse">
<stop stop-color="#FFA669"/>
<stop offset="0.4583" stop-color="#FDA669"/>
<stop offset="0.6234" stop-color="#F6A569"/>
<stop offset="0.7411" stop-color="#EBA469"/>
<stop offset="0.8363" stop-color="#DAA269"/>
<stop offset="0.9178" stop-color="#C49F69"/>
<stop offset="0.9886" stop-color="#A99D69"/>
<stop offset="1" stop-color="#A49C69"/>
</linearGradient>
<clipPath id="clip0">
<rect width="193" height="298" fill="white"/>
</clipPath>
</defs>
</svg>
